<svg width="23" height="26" viewBox="0 0 23 26" fill="none" xmlns="http://www.w3.org/2000/svg">
<path d="M11.7256 12.7072C15.1777 12.7072 17.9756 9.9093 17.9756 6.45715C17.9756 3.00501 15.1777 0.207153 11.7256 0.207153C8.27344 0.207153 5.47559 3.00501 5.47559 6.45715C5.47559 9.9093 8.27344 12.7072 11.7256 12.7072ZM16.1006 14.2697H15.2852C14.2012 14.7677 12.9951 15.0509 11.7256 15.0509C10.4561 15.0509 9.25488 14.7677 8.16602 14.2697H7.35059C3.72754 14.2697 0.788086 17.2091 0.788086 20.8322V22.8634C0.788086 24.1573 1.83789 25.2072 3.13184 25.2072H20.3193C21.6133 25.2072 22.6631 24.1573 22.6631 22.8634V20.8322C22.6631 17.2091 19.7236 14.2697 16.1006 14.2697Z" fill="white"/>
</svg>
